<svg xmlns="http://www.w3.org/2000/svg" width="1920" height="1080"><path d="M783,1292L463,1321L1046,1302Z" fill="#7a7a7a" stroke="#7a7a7a" stroke-width="1.51"/><path d="M1046,1302L463,1321L1311,1310Z" fill="#848484" stroke="#848484" stroke-width="1.51"/><path d="M789,-215L1163,-214L1731,-233Z" fill="#3e3e3e" stroke="#3e3e3e" stroke-width="1.51"/><path d="M187,-220L789,-215L1731,-233Z" fill="#353535" stroke="#353535" stroke-width="1.51"/><path d="M1163,-214L1412,-194L1731,-233Z" fill="#434343" stroke="#434343" stroke-width="1.51"/><path d="M1934,-83L1984,95L2080,97Z" fill="#5c5c5c" stroke="#5c5c5c" stroke-width="1.51"/><path d="M1802,-200L1985,-165L2107,-233Z" fill="#4f4f4f" stroke="#4f4f4f" stroke-width="1.51"/><path d="M1731,-233L1802,-200L2107,-233Z" fill="#4c4c4c" stroke="#4c4c4c" stroke-width="1.51"/><path d="M1998,622L2089,625L2114,448Z" fill="#858585" stroke="#858585" stroke-width="1.51"/><path d="M1962,1008L1966,1166L2121,1166Z" fill="#979797" stroke="#979797" stroke-width="1.51"/><path d="M2114,448L2089,625L2122,738Z" fill="#878787" stroke="#878787" stroke-width="1.51"/><path d="M2117,871L1954,909L2125,998Z" fill="#929292" stroke="#929292" stroke-width="1.51"/><path d="M1962,1008L2121,1166L2125,998Z" fill="#979797" stroke="#979797" stroke-width="1.51"/><path d="M2121,1166L2121,1268L2125,998Z" fill="#9b9b9b" stroke="#9b9b9b" stroke-width="1.51"/><path d="M2122,738L2117,871L2125,998Z" fill="#919191" stroke="#919191" stroke-width="1.51"/><path d="M1934,-83L2080,97L2142,-84Z" fill="#5a5a5a" stroke="#5a5a5a" stroke-width="1.51"/><path d="M2107,-233L1985,-165L2142,-84Z" fill="#535353" stroke="#535353" stroke-width="1.51"/><path d="M1963,371L2114,448L2144,323Z" fill="#777777" stroke="#777777" stroke-width="1.51"/><path d="M2082,214L1963,371L2144,323Z" fill="#707070" stroke="#707070" stroke-width="1.51"/><path d="M2142,-84L2080,97L2144,323Z" fill="#636363" stroke="#636363" stroke-width="1.51"/><path d="M2080,97L2082,214L2144,323Z" fill="#6a6a6a" stroke="#6a6a6a" stroke-width="1.51"/><path d="M2114,448L2122,738L2144,323Z" fill="#828282" stroke="#828282" stroke-width="1.51"/><path d="M2122,738L2125,998L2144,323Z" fill="#8b8b8b" stroke="#8b8b8b" stroke-width="1.51"/><path d="M1933,758L2117,871L2122,738Z" fill="#8d8d8d" stroke="#8d8d8d" stroke-width="1.51"/><path d="M1985,-165L1934,-83L2142,-84Z" fill="#555555" stroke="#555555" stroke-width="1.51"/><path d="M1956,438L1998,622L2114,448Z" fill="#808080" stroke="#808080" stroke-width="1.51"/><path d="M1933,758L1954,909L2117,871Z" fill="#8e8e8e" stroke="#8e8e8e" stroke-width="1.51"/><path d="M1966,1166L1992,1281L2121,1166Z" fill="#9b9b9b" stroke="#9b9b9b" stroke-width="1.51"/><path d="M2121,1166L1992,1281L2121,1268Z" fill="#9d9d9d" stroke="#9d9d9d" stroke-width="1.51"/><path d="M2089,625L1998,622L2122,738Z" fill="#898989" stroke="#898989" stroke-width="1.51"/><path d="M1954,909L1962,1008L2125,998Z" fill="#929292" stroke="#929292" stroke-width="1.51"/><path d="M1998,622L1933,758L2122,738Z" fill="#898989" stroke="#898989" stroke-width="1.51"/><path d="M1963,371L1956,438L2114,448Z" fill="#797979" stroke="#797979" stroke-width="1.51"/><path d="M1856,1245L1709,1300L1992,1281Z" fill="#999999" stroke="#999999" stroke-width="1.51"/><path d="M2080,97L1984,95L2082,214Z" fill="#636363" stroke="#636363" stroke-width="1.51"/><path d="M1984,95L1935,207L2082,214Z" fill="#646464" stroke="#646464" stroke-width="1.51"/><path d="M1935,207L1963,371L2082,214Z" fill="#6b6b6b" stroke="#6b6b6b" stroke-width="1.51"/><path d="M1848,-73L1808,45L1934,-83Z" fill="#555555" stroke="#555555" stroke-width="1.51"/><path d="M1962,1008L1867,1145L1966,1166Z" fill="#959595" stroke="#959595" stroke-width="1.51"/><path d="M1934,-83L1808,45L1984,95Z" fill="#595959" stroke="#595959" stroke-width="1.51"/><path d="M1966,1166L1856,1245L1992,1281Z" fill="#9a9a9a" stroke="#9a9a9a" stroke-width="1.51"/><path d="M1828,707L1933,758L1998,622Z" fill="#868686" stroke="#868686" stroke-width="1.51"/><path d="M1852,583L1828,707L1998,622Z" fill="#838383" stroke="#838383" stroke-width="1.51"/><path d="M1956,438L1864,510L1998,622Z" fill="#808080" stroke="#808080" stroke-width="1.51"/><path d="M1864,510L1852,583L1998,622Z" fill="#818181" stroke="#818181" stroke-width="1.51"/><path d="M1935,207L1816,344L1963,371Z" fill="#6d6d6d" stroke="#6d6d6d" stroke-width="1.51"/><path d="M1933,758L1811,870L1954,909Z" fill="#8b8b8b" stroke="#8b8b8b" stroke-width="1.51"/><path d="M1808,45L1935,207L1984,95Z" fill="#5e5e5e" stroke="#5e5e5e" stroke-width="1.51"/><path d="M1802,-200L1934,-83L1985,-165Z" fill="#505050" stroke="#505050" stroke-width="1.51"/><path d="M1802,-200L1848,-73L1934,-83Z" fill="#505050" stroke="#505050" stroke-width="1.51"/><path d="M1826,222L1816,344L1935,207Z" fill="#686868" stroke="#686868" stroke-width="1.51"/><path d="M1808,45L1826,222L1935,207Z" fill="#606060" stroke="#606060" stroke-width="1.51"/><path d="M1811,870L1805,1045L1954,909Z" fill="#8e8e8e" stroke="#8e8e8e" stroke-width="1.51"/><path d="M1954,909L1805,1045L1962,1008Z" fill="#909090" stroke="#909090" stroke-width="1.51"/><path d="M1805,1045L1867,1145L1962,1008Z" fill="#939393" stroke="#939393" stroke-width="1.51"/><path d="M1816,344L1956,438L1963,371Z" fill="#747474" stroke="#747474" stroke-width="1.51"/><path d="M1867,1145L1856,1245L1966,1166Z" fill="#979797" stroke="#979797" stroke-width="1.51"/><path d="M1816,344L1864,510L1956,438Z" fill="#777777" stroke="#777777" stroke-width="1.51"/><path d="M1828,707L1811,870L1933,758Z" fill="#888888" stroke="#888888" stroke-width="1.51"/><path d="M1412,-194L1554,-171L1731,-233Z" fill="#464646" stroke="#464646" stroke-width="1.51"/><path d="M1726,912L1805,1045L1811,870Z" fill="#8c8c8c" stroke="#8c8c8c" stroke-width="1.51"/><path d="M1808,45L1740,94L1826,222Z" fill="#5c5c5c" stroke="#5c5c5c" stroke-width="1.51"/><path d="M1736,584L1828,707L1852,583Z" fill="#818181" stroke="#818181" stroke-width="1.51"/><path d="M1816,344L1711,477L1864,510Z" fill="#767676" stroke="#767676" stroke-width="1.51"/><path d="M1736,584L1852,583L1864,510Z" fill="#7f7f7f" stroke="#7f7f7f" stroke-width="1.51"/><path d="M1705,1156L1856,1245L1867,1145Z" fill="#959595" stroke="#959595" stroke-width="1.51"/><path d="M1805,1045L1705,1156L1867,1145Z" fill="#929292" stroke="#929292" stroke-width="1.51"/><path d="M1802,-200L1722,-86L1848,-73Z" fill="#4f4f4f" stroke="#4f4f4f" stroke-width="1.51"/><path d="M1711,477L1736,584L1864,510Z" fill="#7c7c7c" stroke="#7c7c7c" stroke-width="1.51"/><path d="M1675,714L1811,870L1828,707Z" fill="#858585" stroke="#858585" stroke-width="1.51"/><path d="M1722,-86L1808,45L1848,-73Z" fill="#545454" stroke="#545454" stroke-width="1.51"/><path d="M1705,1156L1709,1300L1856,1245Z" fill="#969696" stroke="#969696" stroke-width="1.51"/><path d="M1533,1271L1445,1308L1709,1300Z" fill="#939393" stroke="#939393" stroke-width="1.51"/><path d="M1675,714L1726,912L1811,870Z" fill="#878787" stroke="#878787" stroke-width="1.51"/><path d="M1669,182L1668,370L1816,344Z" fill="#686868" stroke="#686868" stroke-width="1.51"/><path d="M1668,370L1711,477L1816,344Z" fill="#717171" stroke="#717171" stroke-width="1.51"/><path d="M1669,182L1816,344L1826,222Z" fill="#656565" stroke="#656565" stroke-width="1.51"/><path d="M1740,94L1669,182L1826,222Z" fill="#5e5e5e" stroke="#5e5e5e" stroke-width="1.51"/><path d="M1736,584L1675,714L1828,707Z" fill="#818181" stroke="#818181" stroke-width="1.51"/><path d="M1726,912L1685,1042L1805,1045Z" fill="#8d8d8d" stroke="#8d8d8d" stroke-width="1.51"/><path d="M1685,1042L1705,1156L1805,1045Z" fill="#909090" stroke="#909090" stroke-width="1.51"/><path d="M1722,-86L1740,94L1808,45Z" fill="#565656" stroke="#565656" stroke-width="1.51"/><path d="M1731,-233L1722,-86L1802,-200Z" fill="#4b4b4b" stroke="#4b4b4b" stroke-width="1.51"/><path d="M1590,738L1592,885L1675,714Z" fill="#828282" stroke="#828282" stroke-width="1.51"/><path d="M1675,714L1592,885L1726,912Z" fill="#858585" stroke="#858585" stroke-width="1.51"/><path d="M1554,-171L1722,-86L1731,-233Z" fill="#4a4a4a" stroke="#4a4a4a" stroke-width="1.51"/><path d="M1711,477L1584,569L1736,584Z" fill="#7b7b7b" stroke="#7b7b7b" stroke-width="1.51"/><path d="M1584,569L1675,714L1736,584Z" fill="#7e7e7e" stroke="#7e7e7e" stroke-width="1.51"/><path d="M1575,103L1669,182L1740,94Z" fill="#595959" stroke="#595959" stroke-width="1.51"/><path d="M1598,-40L1575,103L1740,94Z" fill="#555555" stroke="#555555" stroke-width="1.51"/><path d="M1722,-86L1598,-40L1740,94Z" fill="#535353" stroke="#535353" stroke-width="1.51"/><path d="M1564,996L1685,1042L1726,912Z" fill="#8a8a8a" stroke="#8a8a8a" stroke-width="1.51"/><path d="M1592,885L1564,996L1726,912Z" fill="#888888" stroke="#888888" stroke-width="1.51"/><path d="M1534,311L1668,370L1669,182Z" fill="#656565" stroke="#656565" stroke-width="1.51"/><path d="M1705,1156L1533,1271L1709,1300Z" fill="#939393" stroke="#939393" stroke-width="1.51"/><path d="M1554,-171L1598,-40L1722,-86Z" fill="#4d4d4d" stroke="#4d4d4d" stroke-width="1.51"/><path d="M1572,486L1584,569L1711,477Z" fill="#777777" stroke="#777777" stroke-width="1.51"/><path d="M1559,186L1534,311L1669,182Z" fill="#606060" stroke="#606060" stroke-width="1.51"/><path d="M1685,1042L1543,1131L1705,1156Z" fill="#8f8f8f" stroke="#8f8f8f" stroke-width="1.51"/><path d="M1543,1131L1533,1271L1705,1156Z" fill="#909090" stroke="#909090" stroke-width="1.51"/><path d="M1668,370L1572,486L1711,477Z" fill="#737373" stroke="#737373" stroke-width="1.51"/><path d="M1584,569L1590,738L1675,714Z" fill="#7e7e7e" stroke="#7e7e7e" stroke-width="1.51"/><path d="M1564,996L1543,1131L1685,1042Z" fill="#8b8b8b" stroke="#8b8b8b" stroke-width="1.51"/><path d="M1575,103L1559,186L1669,182Z" fill="#5b5b5b" stroke="#5b5b5b" stroke-width="1.51"/><path d="M1534,311L1572,486L1668,370Z" fill="#6c6c6c" stroke="#6c6c6c" stroke-width="1.51"/><path d="M897,1285L783,1292L1046,1302Z" fill="#828282" stroke="#828282" stroke-width="1.51"/><path d="M1158,1288L1046,1302L1311,1310Z" fill="#8a8a8a" stroke="#8a8a8a" stroke-width="1.51"/><path d="M1163,-214L1285,-179L1412,-194Z" fill="#404040" stroke="#404040" stroke-width="1.51"/><path d="M1534,311L1424,496L1572,486Z" fill="#6e6e6e" stroke="#6e6e6e" stroke-width="1.51"/><path d="M1420,-36L1420,106L1575,103Z" fill="#525252" stroke="#525252" stroke-width="1.51"/><path d="M1584,569L1446,616L1590,738Z" fill="#7b7b7b" stroke="#7b7b7b" stroke-width="1.51"/><path d="M1590,738L1450,879L1592,885Z" fill="#828282" stroke="#828282" stroke-width="1.51"/><path d="M1450,879L1564,996L1592,885Z" fill="#858585" stroke="#858585" stroke-width="1.51"/><path d="M1420,-36L1575,103L1598,-40Z" fill="#505050" stroke="#505050" stroke-width="1.51"/><path d="M1554,-171L1420,-36L1598,-40Z" fill="#4c4c4c" stroke="#4c4c4c" stroke-width="1.51"/><path d="M1395,719L1450,879L1590,738Z" fill="#7f7f7f" stroke="#7f7f7f" stroke-width="1.51"/><path d="M1446,616L1395,719L1590,738Z" fill="#7c7c7c" stroke="#7c7c7c" stroke-width="1.51"/><path d="M1406,1043L1543,1131L1564,996Z" fill="#898989" stroke="#898989" stroke-width="1.51"/><path d="M1572,486L1424,496L1584,569Z" fill="#757575" stroke="#757575" stroke-width="1.51"/><path d="M1424,496L1446,616L1584,569Z" fill="#777777" stroke="#777777" stroke-width="1.51"/><path d="M1395,326L1424,496L1534,311Z" fill="#696969" stroke="#696969" stroke-width="1.51"/><path d="M1425,1169L1533,1271L1543,1131Z" fill="#8e8e8e" stroke="#8e8e8e" stroke-width="1.51"/><path d="M1420,106L1559,186L1575,103Z" fill="#575757" stroke="#575757" stroke-width="1.51"/><path d="M789,-215L1066,-191L1163,-214Z" fill="#3a3a3a" stroke="#3a3a3a" stroke-width="1.51"/><path d="M1400,219L1534,311L1559,186Z" fill="#5f5f5f" stroke="#5f5f5f" stroke-width="1.51"/><path d="M1412,-194L1420,-36L1554,-171Z" fill="#474747" stroke="#474747" stroke-width="1.51"/><path d="M1450,879L1406,1043L1564,996Z" fill="#858585" stroke="#858585" stroke-width="1.51"/><path d="M1420,106L1400,219L1559,186Z" fill="#585858" stroke="#585858" stroke-width="1.51"/><path d="M1406,1043L1425,1169L1543,1131Z" fill="#8a8a8a" stroke="#8a8a8a" stroke-width="1.51"/><path d="M1425,1169L1445,1308L1533,1271Z" fill="#8f8f8f" stroke="#8f8f8f" stroke-width="1.51"/><path d="M1400,219L1395,326L1534,311Z" fill="#616161" stroke="#616161" stroke-width="1.51"/><path d="M187,-220L487,-171L789,-215Z" fill="#232323" stroke="#232323" stroke-width="1.51"/><path d="M1412,-194L1297,-71L1420,-36Z" fill="#474747" stroke="#474747" stroke-width="1.51"/><path d="M1312,79L1420,106L1420,-36Z" fill="#4f4f4f" stroke="#4f4f4f" stroke-width="1.51"/><path d="M1395,326L1280,471L1424,496Z" fill="#6b6b6b" stroke="#6b6b6b" stroke-width="1.51"/><path d="M1406,1043L1315,1155L1425,1169Z" fill="#898989" stroke="#898989" stroke-width="1.51"/><path d="M1315,1155L1311,1310L1425,1169Z" fill="#8b8b8b" stroke="#8b8b8b" stroke-width="1.51"/><path d="M1425,1169L1311,1310L1445,1308Z" fill="#8e8e8e" stroke="#8e8e8e" stroke-width="1.51"/><path d="M1424,496L1259,590L1446,616Z" fill="#757575" stroke="#757575" stroke-width="1.51"/><path d="M1395,719L1268,860L1450,879Z" fill="#7d7d7d" stroke="#7d7d7d" stroke-width="1.51"/><path d="M1268,860L1332,1001L1450,879Z" fill="#808080" stroke="#808080" stroke-width="1.51"/><path d="M1332,1001L1406,1043L1450,879Z" fill="#848484" stroke="#848484" stroke-width="1.51"/><path d="M1259,590L1395,719L1446,616Z" fill="#777777" stroke="#777777" stroke-width="1.51"/><path d="M1285,-179L1297,-71L1412,-194Z" fill="#444444" stroke="#444444" stroke-width="1.51"/><path d="M1307,181L1400,219L1420,106Z" fill="#575757" stroke="#575757" stroke-width="1.51"/><path d="M1312,79L1307,181L1420,106Z" fill="#525252" stroke="#525252" stroke-width="1.51"/><path d="M1297,-71L1312,79L1420,-36Z" fill="#4b4b4b" stroke="#4b4b4b" stroke-width="1.51"/><path d="M1280,471L1259,590L1424,496Z" fill="#717171" stroke="#717171" stroke-width="1.51"/><path d="M1259,590L1262,719L1395,719Z" fill="#777777" stroke="#777777" stroke-width="1.51"/><path d="M1262,719L1268,860L1395,719Z" fill="#7a7a7a" stroke="#7a7a7a" stroke-width="1.51"/><path d="M1284,307L1280,471L1395,326Z" fill="#656565" stroke="#656565" stroke-width="1.51"/><path d="M1284,307L1395,326L1400,219Z" fill="#5f5f5f" stroke="#5f5f5f" stroke-width="1.51"/><path d="M1332,1001L1315,1155L1406,1043Z" fill="#868686" stroke="#868686" stroke-width="1.51"/><path d="M1307,181L1284,307L1400,219Z" fill="#5a5a5a" stroke="#5a5a5a" stroke-width="1.51"/><path d="M1297,-71L1155,61L1312,79Z" fill="#4b4b4b" stroke="#4b4b4b" stroke-width="1.51"/><path d="M1158,1288L1311,1310L1315,1155Z" fill="#8a8a8a" stroke="#8a8a8a" stroke-width="1.51"/><path d="M1137,1185L1158,1288L1315,1155Z" fill="#878787" stroke="#878787" stroke-width="1.51"/><path d="M1183,1024L1315,1155L1332,1001Z" fill="#848484" stroke="#848484" stroke-width="1.51"/><path d="M1268,860L1183,1024L1332,1001Z" fill="#808080" stroke="#808080" stroke-width="1.51"/><path d="M1262,719L1190,762L1268,860Z" fill="#797979" stroke="#797979" stroke-width="1.51"/><path d="M1141,348L1280,471L1284,307Z" fill="#636363" stroke="#636363" stroke-width="1.51"/><path d="M1170,214L1284,307L1307,181Z" fill="#595959" stroke="#595959" stroke-width="1.51"/><path d="M1155,61L1170,214L1307,181Z" fill="#515151" stroke="#515151" stroke-width="1.51"/><path d="M1155,61L1307,181L1312,79Z" fill="#4f4f4f" stroke="#4f4f4f" stroke-width="1.51"/><path d="M1183,1024L1137,1185L1315,1155Z" fill="#848484" stroke="#848484" stroke-width="1.51"/><path d="M1259,590L1188,630L1262,719Z" fill="#747474" stroke="#747474" stroke-width="1.51"/><path d="M1162,870L1183,1024L1268,860Z" fill="#7d7d7d" stroke="#7d7d7d" stroke-width="1.51"/><path d="M1285,-179L1163,-104L1297,-71Z" fill="#434343" stroke="#434343" stroke-width="1.51"/><path d="M1163,-104L1155,61L1297,-71Z" fill="#474747" stroke="#474747" stroke-width="1.51"/><path d="M1134,485L1259,590L1280,471Z" fill="#6e6e6e" stroke="#6e6e6e" stroke-width="1.51"/><path d="M1141,348L1134,485L1280,471Z" fill="#676767" stroke="#676767" stroke-width="1.51"/><path d="M1170,214L1141,348L1284,307Z" fill="#5b5b5b" stroke="#5b5b5b" stroke-width="1.51"/><path d="M1163,-214L1163,-104L1285,-179Z" fill="#404040" stroke="#404040" stroke-width="1.51"/><path d="M1134,485L1188,630L1259,590Z" fill="#707070" stroke="#707070" stroke-width="1.51"/><path d="M1190,762L1162,870L1268,860Z" fill="#7a7a7a" stroke="#7a7a7a" stroke-width="1.51"/><path d="M1188,630L1190,762L1262,719Z" fill="#767676" stroke="#767676" stroke-width="1.51"/><path d="M997,-97L1155,61L1163,-104Z" fill="#444444" stroke="#444444" stroke-width="1.51"/><path d="M1066,-191L1163,-104L1163,-214Z" fill="#3e3e3e" stroke="#3e3e3e" stroke-width="1.51"/><path d="M1155,61L1049,186L1170,214Z" fill="#505050" stroke="#505050" stroke-width="1.51"/><path d="M1162,870L1022,1004L1183,1024Z" fill="#7d7d7d" stroke="#7d7d7d" stroke-width="1.51"/><path d="M1022,1004L1137,1185L1183,1024Z" fill="#808080" stroke="#808080" stroke-width="1.51"/><path d="M1134,485L1035,599L1188,630Z" fill="#6e6e6e" stroke="#6e6e6e" stroke-width="1.51"/><path d="M1004,773L1162,870L1190,762Z" fill="#777777" stroke="#777777" stroke-width="1.51"/><path d="M1188,630L1035,599L1190,762Z" fill="#727272" stroke="#727272" stroke-width="1.51"/><path d="M1035,599L1004,773L1190,762Z" fill="#727272" stroke="#727272" stroke-width="1.51"/><path d="M1061,374L1134,485L1141,348Z" fill="#626262" stroke="#626262" stroke-width="1.51"/><path d="M1019,872L1022,1004L1162,870Z" fill="#7a7a7a" stroke="#7a7a7a" stroke-width="1.51"/><path d="M1060,492L1035,599L1134,485Z" fill="#6b6b6b" stroke="#6b6b6b" stroke-width="1.51"/><path d="M1004,773L1019,872L1162,870Z" fill="#777777" stroke="#777777" stroke-width="1.51"/><path d="M1049,186L1141,348L1170,214Z" fill="#575757" stroke="#575757" stroke-width="1.51"/><path d="M789,-215L881,-165L1066,-191Z" fill="#373737" stroke="#373737" stroke-width="1.51"/><path d="M1022,1004L989,1179L1137,1185Z" fill="#818181" stroke="#818181" stroke-width="1.51"/><path d="M1049,186L1061,374L1141,348Z" fill="#5a5a5a" stroke="#5a5a5a" stroke-width="1.51"/><path d="M1014,96L1049,186L1155,61Z" fill="#4c4c4c" stroke="#4c4c4c" stroke-width="1.51"/><path d="M997,-97L1014,96L1155,61Z" fill="#464646" stroke="#464646" stroke-width="1.51"/><path d="M1137,1185L1046,1302L1158,1288Z" fill="#878787" stroke="#878787" stroke-width="1.51"/><path d="M1066,-191L997,-97L1163,-104Z" fill="#3f3f3f" stroke="#3f3f3f" stroke-width="1.51"/><path d="M1061,374L1060,492L1134,485Z" fill="#666666" stroke="#666666" stroke-width="1.51"/><path d="M620,1279L463,1321L783,1292Z" fill="#727272" stroke="#727272" stroke-width="1.51"/><path d="M989,1179L1046,1302L1137,1185Z" fill="#858585" stroke="#858585" stroke-width="1.51"/><path d="M366,1298L-51,1320L463,1321Z" fill="#616161" stroke="#616161" stroke-width="1.51"/><path d="M922,-89L874,29L997,-97Z" fill="#3f3f3f" stroke="#3f3f3f" stroke-width="1.51"/><path d="M997,-97L874,29L1014,96Z" fill="#444444" stroke="#444444" stroke-width="1.51"/><path d="M903,1142L989,1179L1022,1004Z" fill="#7f7f7f" stroke="#7f7f7f" stroke-width="1.51"/><path d="M911,601L1004,773L1035,599Z" fill="#6e6e6e" stroke="#6e6e6e" stroke-width="1.51"/><path d="M905,190L895,309L1049,186Z" fill="#515151" stroke="#515151" stroke-width="1.51"/><path d="M911,601L1035,599L1060,492Z" fill="#6c6c6c" stroke="#6c6c6c" stroke-width="1.51"/><path d="M1049,186L895,309L1061,374Z" fill="#575757" stroke="#575757" stroke-width="1.51"/><path d="M895,443L1060,492L1061,374Z" fill="#636363" stroke="#636363" stroke-width="1.51"/><path d="M881,-165L997,-97L1066,-191Z" fill="#3c3c3c" stroke="#3c3c3c" stroke-width="1.51"/><path d="M911,1014L903,1142L1022,1004Z" fill="#7b7b7b" stroke="#7b7b7b" stroke-width="1.51"/><path d="M895,443L911,601L1060,492Z" fill="#686868" stroke="#686868" stroke-width="1.51"/><path d="M895,309L895,443L1061,374Z" fill="#5c5c5c" stroke="#5c5c5c" stroke-width="1.51"/><path d="M1019,872L911,1014L1022,1004Z" fill="#797979" stroke="#797979" stroke-width="1.51"/><path d="M989,1179L897,1285L1046,1302Z" fill="#848484" stroke="#848484" stroke-width="1.51"/><path d="M1014,96L905,190L1049,186Z" fill="#4d4d4d" stroke="#4d4d4d" stroke-width="1.51"/><path d="M911,601L862,761L1004,773Z" fill="#6e6e6e" stroke="#6e6e6e" stroke-width="1.51"/><path d="M881,-165L922,-89L997,-97Z" fill="#3c3c3c" stroke="#3c3c3c" stroke-width="1.51"/><path d="M1004,773L868,852L1019,872Z" fill="#747474" stroke="#747474" stroke-width="1.51"/><path d="M868,852L911,1014L1019,872Z" fill="#767676" stroke="#767676" stroke-width="1.51"/><path d="M874,29L905,190L1014,96Z" fill="#474747" stroke="#474747" stroke-width="1.51"/><path d="M862,761L868,852L1004,773Z" fill="#707070" stroke="#707070" stroke-width="1.51"/><path d="M487,-171L650,-166L789,-215Z" fill="#2b2b2b" stroke="#2b2b2b" stroke-width="1.51"/><path d="M903,1142L897,1285L989,1179Z" fill="#808080" stroke="#808080" stroke-width="1.51"/><path d="M780,473L784,579L895,443Z" fill="#5f5f5f" stroke="#5f5f5f" stroke-width="1.51"/><path d="M783,1292L897,1285L903,1142Z" fill="#7d7d7d" stroke="#7d7d7d" stroke-width="1.51"/><path d="M874,29L761,95L905,190Z" fill="#434343" stroke="#434343" stroke-width="1.51"/><path d="M895,443L784,579L911,601Z" fill="#656565" stroke="#656565" stroke-width="1.51"/><path d="M784,579L862,761L911,601Z" fill="#686868" stroke="#686868" stroke-width="1.51"/><path d="M868,852L750,889L911,1014Z" fill="#717171" stroke="#717171" stroke-width="1.51"/><path d="M750,889L736,1014L911,1014Z" fill="#717171" stroke="#717171" stroke-width="1.51"/><path d="M731,1121L903,1142L911,1014Z" fill="#777777" stroke="#777777" stroke-width="1.51"/><path d="M736,1014L731,1121L911,1014Z" fill="#727272" stroke="#727272" stroke-width="1.51"/><path d="M881,-165L775,-101L922,-89Z" fill="#383838" stroke="#383838" stroke-width="1.51"/><path d="M775,-101L874,29L922,-89Z" fill="#3b3b3b" stroke="#3b3b3b" stroke-width="1.51"/><path d="M720,322L780,473L895,309Z" fill="#545454" stroke="#545454" stroke-width="1.51"/><path d="M895,309L780,473L895,443Z" fill="#5a5a5a" stroke="#5a5a5a" stroke-width="1.51"/><path d="M731,1121L783,1292L903,1142Z" fill="#787878" stroke="#787878" stroke-width="1.51"/><path d="M761,95L746,184L905,190Z" fill="#444444" stroke="#444444" stroke-width="1.51"/><path d="M746,184L895,309L905,190Z" fill="#4c4c4c" stroke="#4c4c4c" stroke-width="1.51"/><path d="M784,579L738,757L862,761Z" fill="#676767" stroke="#676767" stroke-width="1.51"/><path d="M746,184L720,322L895,309Z" fill="#4c4c4c" stroke="#4c4c4c" stroke-width="1.51"/><path d="M789,-215L775,-101L881,-165Z" fill="#343434" stroke="#343434" stroke-width="1.51"/><path d="M862,761L738,757L868,852Z" fill="#6b6b6b" stroke="#6b6b6b" stroke-width="1.51"/><path d="M738,757L750,889L868,852Z" fill="#6b6b6b" stroke="#6b6b6b" stroke-width="1.51"/><path d="M775,-101L761,95L874,29Z" fill="#3c3c3c" stroke="#3c3c3c" stroke-width="1.51"/><path d="M187,-220L349,-165L487,-171Z" fill="#1d1d1d" stroke="#1d1d1d" stroke-width="1.51"/><path d="M611,582L644,760L738,757Z" fill="#606060" stroke="#606060" stroke-width="1.51"/><path d="M657,53L761,95L775,-101Z" fill="#393939" stroke="#393939" stroke-width="1.51"/><path d="M628,-34L657,53L775,-101Z" fill="#353535" stroke="#353535" stroke-width="1.51"/><path d="M720,322L640,437L780,473Z" fill="#535353" stroke="#535353" stroke-width="1.51"/><path d="M640,437L611,582L780,473Z" fill="#585858" stroke="#585858" stroke-width="1.51"/><path d="M731,1121L620,1279L783,1292Z" fill="#747474" stroke="#747474" stroke-width="1.51"/><path d="M780,473L611,582L784,579Z" fill="#5d5d5d" stroke="#5d5d5d" stroke-width="1.51"/><path d="M611,582L738,757L784,579Z" fill="#606060" stroke="#606060" stroke-width="1.51"/><path d="M650,-166L775,-101L789,-215Z" fill="#313131" stroke="#313131" stroke-width="1.51"/><path d="M629,1121L620,1279L731,1121Z" fill="#707070" stroke="#707070" stroke-width="1.51"/><path d="M738,757L644,760L750,889Z" fill="#666666" stroke="#666666" stroke-width="1.51"/><path d="M650,-166L628,-34L775,-101Z" fill="#313131" stroke="#313131" stroke-width="1.51"/><path d="M610,211L720,322L746,184Z" fill="#454545" stroke="#454545" stroke-width="1.51"/><path d="M608,913L736,1014L750,889Z" fill="#6a6a6a" stroke="#6a6a6a" stroke-width="1.51"/><path d="M657,53L746,184L761,95Z" fill="#3e3e3e" stroke="#3e3e3e" stroke-width="1.51"/><path d="M629,1121L731,1121L736,1014Z" fill="#6f6f6f" stroke="#6f6f6f" stroke-width="1.51"/><path d="M657,53L610,211L746,184Z" fill="#3d3d3d" stroke="#3d3d3d" stroke-width="1.51"/><path d="M644,760L608,913L750,889Z" fill="#656565" stroke="#656565" stroke-width="1.51"/><path d="M587,1010L629,1121L736,1014Z" fill="#6b6b6b" stroke="#6b6b6b" stroke-width="1.51"/><path d="M608,913L587,1010L736,1014Z" fill="#686868" stroke="#686868" stroke-width="1.51"/><path d="M584,375L640,437L720,322Z" fill="#4d4d4d" stroke="#4d4d4d" stroke-width="1.51"/><path d="M610,211L584,375L720,322Z" fill="#474747" stroke="#474747" stroke-width="1.51"/><path d="M517,350L584,375L610,211Z" fill="#444444" stroke="#444444" stroke-width="1.51"/><path d="M506,1124L620,1279L629,1121Z" fill="#6c6c6c" stroke="#6c6c6c" stroke-width="1.51"/><path d="M462,445L611,582L640,437Z" fill="#525252" stroke="#525252" stroke-width="1.51"/><path d="M503,914L608,913L644,760Z" fill="#616161" stroke="#616161" stroke-width="1.51"/><path d="M459,748L503,914L644,760Z" fill="#5d5d5d" stroke="#5d5d5d" stroke-width="1.51"/><path d="M611,582L487,592L644,760Z" fill="#595959" stroke="#595959" stroke-width="1.51"/><path d="M487,592L459,748L644,760Z" fill="#595959" stroke="#595959" stroke-width="1.51"/><path d="M524,-101L628,-34L650,-166Z" fill="#2d2d2d" stroke="#2d2d2d" stroke-width="1.51"/><path d="M628,-34L508,84L657,53Z" fill="#343434" stroke="#343434" stroke-width="1.51"/><path d="M508,84L610,211L657,53Z" fill="#373737" stroke="#373737" stroke-width="1.51"/><path d="M487,-171L524,-101L650,-166Z" fill="#282828" stroke="#282828" stroke-width="1.51"/><path d="M462,445L487,592L611,582Z" fill="#535353" stroke="#535353" stroke-width="1.51"/><path d="M587,1010L506,1124L629,1121Z" fill="#686868" stroke="#686868" stroke-width="1.51"/><path d="M584,375L462,445L640,437Z" fill="#4c4c4c" stroke="#4c4c4c" stroke-width="1.51"/><path d="M-168,-214L97,-199L187,-220Z" fill="#131313" stroke="#131313" stroke-width="1.51"/><path d="M506,1124L463,1321L620,1279Z" fill="#6b6b6b" stroke="#6b6b6b" stroke-width="1.51"/><path d="M524,-101L508,84L628,-34Z" fill="#2f2f2f" stroke="#2f2f2f" stroke-width="1.51"/><path d="M502,974L587,1010L608,913Z" fill="#636363" stroke="#636363" stroke-width="1.51"/><path d="M462,218L517,350L610,211Z" fill="#3e3e3e" stroke="#3e3e3e" stroke-width="1.51"/><path d="M508,84L462,218L610,211Z" fill="#383838" stroke="#383838" stroke-width="1.51"/><path d="M503,914L502,974L608,913Z" fill="#616161" stroke="#616161" stroke-width="1.51"/><path d="M91,1261L-51,1320L366,1298Z" fill="#5b5b5b" stroke="#5b5b5b" stroke-width="1.51"/><path d="M517,350L462,445L584,375Z" fill="#474747" stroke="#474747" stroke-width="1.51"/><path d="M502,974L506,1124L587,1010Z" fill="#646464" stroke="#646464" stroke-width="1.51"/><path d="M206,1248L91,1261L366,1298Z" fill="#5e5e5e" stroke="#5e5e5e" stroke-width="1.51"/><path d="M344,1162L366,1298L463,1321Z" fill="#646464" stroke="#646464" stroke-width="1.51"/><path d="M459,748L389,898L503,914Z" fill="#5a5a5a" stroke="#5a5a5a" stroke-width="1.51"/><path d="M344,1162L463,1321L506,1124Z" fill="#656565" stroke="#656565" stroke-width="1.51"/><path d="M502,974L355,1035L506,1124Z" fill="#616161" stroke="#616161" stroke-width="1.51"/><path d="M368,95L462,218L508,84Z" fill="#313131" stroke="#313131" stroke-width="1.51"/><path d="M462,218L372,299L517,350Z" fill="#3c3c3c" stroke="#3c3c3c" stroke-width="1.51"/><path d="M487,-171L322,-99L524,-101Z" fill="#252525" stroke="#252525" stroke-width="1.51"/><path d="M368,95L508,84L524,-101Z" fill="#2d2d2d" stroke="#2d2d2d" stroke-width="1.51"/><path d="M322,-99L368,95L524,-101Z" fill="#272727" stroke="#272727" stroke-width="1.51"/><path d="M349,-165L322,-99L487,-171Z" fill="#212121" stroke="#212121" stroke-width="1.51"/><path d="M372,299L462,445L517,350Z" fill="#424242" stroke="#424242" stroke-width="1.51"/><path d="M315,505L331,586L462,445Z" fill="#4a4a4a" stroke="#4a4a4a" stroke-width="1.51"/><path d="M462,445L331,586L487,592Z" fill="#4e4e4e" stroke="#4e4e4e" stroke-width="1.51"/><path d="M331,586L459,748L487,592Z" fill="#525252" stroke="#525252" stroke-width="1.51"/><path d="M389,898L502,974L503,914Z" fill="#5e5e5e" stroke="#5e5e5e" stroke-width="1.51"/><path d="M355,1035L344,1162L506,1124Z" fill="#606060" stroke="#606060" stroke-width="1.51"/><path d="M331,586L328,735L459,748Z" fill="#515151" stroke="#515151" stroke-width="1.51"/><path d="M389,898L355,1035L502,974Z" fill="#5c5c5c" stroke="#5c5c5c" stroke-width="1.51"/><path d="M368,95L391,227L462,218Z" fill="#323232" stroke="#323232" stroke-width="1.51"/><path d="M391,227L372,299L462,218Z" fill="#373737" stroke="#373737" stroke-width="1.51"/><path d="M328,735L389,898L459,748Z" fill="#555555" stroke="#555555" stroke-width="1.51"/><path d="M372,299L315,505L462,445Z" fill="#434343" stroke="#434343" stroke-width="1.51"/><path d="M322,-99L215,83L368,95Z" fill="#262626" stroke="#262626" stroke-width="1.51"/><path d="M209,441L315,505L372,299Z" fill="#3f3f3f" stroke="#3f3f3f" stroke-width="1.51"/><path d="M198,363L209,441L372,299Z" fill="#3a3a3a" stroke="#3a3a3a" stroke-width="1.51"/><path d="M328,735L231,773L389,898Z" fill="#525252" stroke="#525252" stroke-width="1.51"/><path d="M231,773L205,862L389,898Z" fill="#525252" stroke="#525252" stroke-width="1.51"/><path d="M217,1000L355,1035L389,898Z" fill="#585858" stroke="#585858" stroke-width="1.51"/><path d="M205,862L217,1000L389,898Z" fill="#545454" stroke="#545454" stroke-width="1.51"/><path d="M204,191L372,299L391,227Z" fill="#333333" stroke="#333333" stroke-width="1.51"/><path d="M368,95L204,191L391,227Z" fill="#2e2e2e" stroke="#2e2e2e" stroke-width="1.51"/><path d="M230,637L328,735L331,586Z" fill="#4c4c4c" stroke="#4c4c4c" stroke-width="1.51"/><path d="M196,1150L344,1162L355,1035Z" fill="#5b5b5b" stroke="#5b5b5b" stroke-width="1.51"/><path d="M344,1162L206,1248L366,1298Z" fill="#606060" stroke="#606060" stroke-width="1.51"/><path d="M215,83L204,191L368,95Z" fill="#292929" stroke="#292929" stroke-width="1.51"/><path d="M204,191L198,363L372,299Z" fill="#343434" stroke="#343434" stroke-width="1.51"/><path d="M214,-102L215,83L322,-99Z" fill="#212121" stroke="#212121" stroke-width="1.51"/><path d="M217,1000L196,1150L355,1035Z" fill="#585858" stroke="#585858" stroke-width="1.51"/><path d="M196,1150L206,1248L344,1162Z" fill="#5c5c5c" stroke="#5c5c5c" stroke-width="1.51"/><path d="M214,-102L322,-99L349,-165Z" fill="#1f1f1f" stroke="#1f1f1f" stroke-width="1.51"/><path d="M187,-220L214,-102L349,-165Z" fill="#1c1c1c" stroke="#1c1c1c" stroke-width="1.51"/><path d="M230,637L231,773L328,735Z" fill="#4d4d4d" stroke="#4d4d4d" stroke-width="1.51"/><path d="M315,505L230,637L331,586Z" fill="#4a4a4a" stroke="#4a4a4a" stroke-width="1.51"/><path d="M209,441L230,637L315,505Z" fill="#464646" stroke="#464646" stroke-width="1.51"/><path d="M-168,-214L-62,-173L97,-199Z" fill="#101010" stroke="#101010" stroke-width="1.51"/><path d="M82,202L198,363L204,191Z" fill="#2f2f2f" stroke="#2f2f2f" stroke-width="1.51"/><path d="M87,503L109,601L209,441Z" fill="#414141" stroke="#414141" stroke-width="1.51"/><path d="M187,-220L97,-199L214,-102Z" fill="#191919" stroke="#191919" stroke-width="1.51"/><path d="M102,82L204,191L215,83Z" fill="#262626" stroke="#262626" stroke-width="1.51"/><path d="M214,-102L99,-42L215,83Z" fill="#202020" stroke="#202020" stroke-width="1.51"/><path d="M99,-42L102,82L215,83Z" fill="#212121" stroke="#212121" stroke-width="1.51"/><path d="M116,1113L196,1150L217,1000Z" fill="#565656" stroke="#565656" stroke-width="1.51"/><path d="M205,862L114,902L217,1000Z" fill="#515151" stroke="#515151" stroke-width="1.51"/><path d="M209,441L109,601L230,637Z" fill="#454545" stroke="#454545" stroke-width="1.51"/><path d="M54,779L205,862L231,773Z" fill="#4d4d4d" stroke="#4d4d4d" stroke-width="1.51"/><path d="M230,637L109,601L231,773Z" fill="#494949" stroke="#494949" stroke-width="1.51"/><path d="M109,601L54,779L231,773Z" fill="#494949" stroke="#494949" stroke-width="1.51"/><path d="M82,202L65,364L198,363Z" fill="#313131" stroke="#313131" stroke-width="1.51"/><path d="M54,779L114,902L205,862Z" fill="#4d4d4d" stroke="#4d4d4d" stroke-width="1.51"/><path d="M196,1150L91,1261L206,1248Z" fill="#5a5a5a" stroke="#5a5a5a" stroke-width="1.51"/><path d="M43,1028L116,1113L217,1000Z" fill="#535353" stroke="#535353" stroke-width="1.51"/><path d="M114,902L43,1028L217,1000Z" fill="#515151" stroke="#515151" stroke-width="1.51"/><path d="M102,82L82,202L204,191Z" fill="#272727" stroke="#272727" stroke-width="1.51"/><path d="M97,-199L99,-42L214,-102Z" fill="#1a1a1a" stroke="#1a1a1a" stroke-width="1.51"/><path d="M198,363L65,364L209,441Z" fill="#393939" stroke="#393939" stroke-width="1.51"/><path d="M65,364L87,503L209,441Z" fill="#3b3b3b" stroke="#3b3b3b" stroke-width="1.51"/><path d="M116,1113L91,1261L196,1150Z" fill="#575757" stroke="#575757" stroke-width="1.51"/><path d="M-45,219L65,364L82,202Z" fill="#2b2b2b" stroke="#2b2b2b" stroke-width="1.51"/><path d="M65,364L-25,467L87,503Z" fill="#393939" stroke="#393939" stroke-width="1.51"/><path d="M97,-199L-33,-102L99,-42Z" fill="#181818" stroke="#181818" stroke-width="1.51"/><path d="M99,-42L-78,69L102,82Z" fill="#1e1e1e" stroke="#1e1e1e" stroke-width="1.51"/><path d="M-37,642L54,779L109,601Z" fill="#444444" stroke="#444444" stroke-width="1.51"/><path d="M-59,998L43,1028L114,902Z" fill="#4d4d4d" stroke="#4d4d4d" stroke-width="1.51"/><path d="M54,779L-77,847L114,902Z" fill="#494949" stroke="#494949" stroke-width="1.51"/><path d="M-51,1121L91,1261L116,1113Z" fill="#545454" stroke="#545454" stroke-width="1.51"/><path d="M43,1028L-51,1121L116,1113Z" fill="#515151" stroke="#515151" stroke-width="1.51"/><path d="M87,503L-37,642L109,601Z" fill="#414141" stroke="#414141" stroke-width="1.51"/><path d="M-77,847L-59,998L114,902Z" fill="#4a4a4a" stroke="#4a4a4a" stroke-width="1.51"/><path d="M-45,219L-19,369L65,364Z" fill="#2e2e2e" stroke="#2e2e2e" stroke-width="1.51"/><path d="M-78,69L-45,219L82,202Z" fill="#232323" stroke="#232323" stroke-width="1.51"/><path d="M-78,69L82,202L102,82Z" fill="#222222" stroke="#222222" stroke-width="1.51"/><path d="M-25,467L-37,642L87,503Z" fill="#3f3f3f" stroke="#3f3f3f" stroke-width="1.51"/><path d="M-62,-173L-33,-102L97,-199Z" fill="#141414" stroke="#141414" stroke-width="1.51"/><path d="M-33,-102L-78,69L99,-42Z" fill="#1a1a1a" stroke="#1a1a1a" stroke-width="1.51"/><path d="M-34,781L-77,847L54,779Z" fill="#464646" stroke="#464646" stroke-width="1.51"/><path d="M-51,1121L-51,1320L91,1261Z" fill="#555555" stroke="#555555" stroke-width="1.51"/><path d="M-19,369L-25,467L65,364Z" fill="#343434" stroke="#343434" stroke-width="1.51"/><path d="M-37,642L-34,781L54,779Z" fill="#454545" stroke="#454545" stroke-width="1.51"/><path d="M-59,998L-51,1121L43,1028Z" fill="#4e4e4e" stroke="#4e4e4e" stroke-width="1.51"/><path d="M-162,1110L-200,1305L-51,1121Z" fill="#4e4e4e" stroke="#4e4e4e" stroke-width="1.51"/><path d="M-51,1121L-200,1305L-51,1320Z" fill="#525252" stroke="#525252" stroke-width="1.51"/><path d="M-78,69L-155,86L-45,219Z" fill="#1f1f1f" stroke="#1f1f1f" stroke-width="1.51"/><path d="M-155,86L-183,177L-45,219Z" fill="#202020" stroke="#202020" stroke-width="1.51"/><path d="M-37,642L-183,747L-34,781Z" fill="#414141" stroke="#414141" stroke-width="1.51"/><path d="M-210,-72L-78,69L-33,-102Z" fill="#171717" stroke="#171717" stroke-width="1.51"/><path d="M-182,604L-37,642L-25,467Z" fill="#3d3d3d" stroke="#3d3d3d" stroke-width="1.51"/><path d="M-189,507L-182,604L-25,467Z" fill="#393939" stroke="#393939" stroke-width="1.51"/><path d="M-45,219L-192,316L-19,369Z" fill="#2a2a2a" stroke="#2a2a2a" stroke-width="1.51"/><path d="M-189,507L-25,467L-19,369Z" fill="#353535" stroke="#353535" stroke-width="1.51"/><path d="M-192,316L-189,507L-19,369Z" fill="#303030" stroke="#303030" stroke-width="1.51"/><path d="M-59,998L-162,1110L-51,1121Z" fill="#4c4c4c" stroke="#4c4c4c" stroke-width="1.51"/><path d="M-77,847L-178,1013L-59,998Z" fill="#484848" stroke="#484848" stroke-width="1.51"/><path d="M-182,604L-183,747L-37,642Z" fill="#3e3e3e" stroke="#3e3e3e" stroke-width="1.51"/><path d="M-62,-173L-210,-72L-33,-102Z" fill="#131313" stroke="#131313" stroke-width="1.51"/><path d="M-183,747L-77,847L-34,781Z" fill="#434343" stroke="#434343" stroke-width="1.51"/><path d="M-178,1013L-162,1110L-59,998Z" fill="#4a4a4a" stroke="#4a4a4a" stroke-width="1.51"/><path d="M-210,-72L-155,86L-78,69Z" fill="#191919" stroke="#191919" stroke-width="1.51"/><path d="M-219,865L-178,1013L-77,847Z" fill="#454545" stroke="#454545" stroke-width="1.51"/><path d="M-183,177L-192,316L-45,219Z" fill="#252525" stroke="#252525" stroke-width="1.51"/><path d="M-168,-214L-210,-72L-62,-173Z" fill="#0f0f0f" stroke="#0f0f0f" stroke-width="1.51"/><path d="M-183,747L-219,865L-77,847Z" fill="#424242" stroke="#424242" stroke-width="1.51"/><path d="M-210,-72L-183,177L-155,86Z" fill="#191919" stroke="#191919" stroke-width="1.51"/><path d="M-178,1013L-200,1305L-162,1110Z" fill="#4b4b4b" stroke="#4b4b4b" stroke-width="1.51"/><path d="M-219,865L-183,747L-182,604Z" fill="#3e3e3e" stroke="#3e3e3e" stroke-width="1.51"/><path d="M-219,865L-200,1305L-178,1013Z" fill="#484848" stroke="#484848" stroke-width="1.51"/><path d="M-189,507L-219,865L-182,604Z" fill="#3b3b3b" stroke="#3b3b3b" stroke-width="1.51"/><path d="M-210,-72L-192,316L-183,177Z" fill="#1c1c1c" stroke="#1c1c1c" stroke-width="1.51"/><path d="M-192,316L-219,865L-189,507Z" fill="#383838" stroke="#383838" stroke-width="1.51"/><path d="M-210,-72L-219,865L-192,316Z" fill="#2b2b2b" stroke="#2b2b2b" stroke-width="1.51"/></svg>